inDegrees=yes
name=ik_S49_A13_T01
DataType=double
version=3
OpenSimVersion=4.3-2021-08-27-4bc7ad9
endheader
time	pelvis_tilt	pelvis_list	pelvis_rotation	pelvis_tx	pelvis_ty	pelvis_tz	hip_flexion_r	hip_adduction_r	hip_rotation_r	knee_angle_r	knee_angle_r_beta	ankle_angle_r	subtalar_angle_r	mtp_angle_r	hip_flexion_l	hip_adduction_l	hip_rotation_l	knee_angle_l	knee_angle_l_beta	ankle_angle_l	subtalar_angle_l	mtp_angle_l	lumbar_extension	lumbar_bending	lumbar_rotation	arm_flex_r	arm_add_r	arm_rot_r	elbow_flex_r	pro_sup_r	wrist_flex_r	wrist_dev_r	arm_flex_l	arm_add_l	arm_rot_l	elbow_flex_l	pro_sup_l	wrist_flex_l	wrist_dev_l
11.65999999999984	1.726668588156749	2.535317307018904	17.90859019829627	0	0.9399999999999999	0	26.34098908511974	-8.88988370836949	-7.853569542037111	30.83989712090892	0.5382577457361803	0	0	0	26.34098908511974	-8.88988370836949	-7.853569542037111	30.83989712090892	0.5382577457361803	0	0	0	2.487525526727835	3.346974182304797	12.17435321936176	55.18400274004581	12.22461887347093	-2.49692490862673	72.05805751993557	141.0595141924509	0	0	65.14697861900221	-6.536593842978853	14.48421304076384	78.81418529488553	18.43090492955908	0	0
11.67999999999984	1.757543883868205	2.516246254353637	17.85344648066937	0	0.9399999999999999	0	26.35148643722726	-8.891923081056325	-7.856106427265854	30.84983378283793	0.5384311732034992	0	0	0	26.35148643722726	-8.891923081056325	-7.856106427265854	30.84983378283793	0.5384311732034992	0	0	0	2.508766543695759	3.322467638805287	12.24649604371729	55.21242106774744	12.17005178165794	-2.865010469524249	73.22714421227403	141.4688730809697	0	0	65.14366255030643	-6.749365219445168	14.68577526521943	79.74140665865451	18.86273502364915	0	0
11.69999999999984	1.786832525091707	2.461565495921631	17.77815970463766	0	0.9399999999999999	0	26.36016757393456	-8.893608708107607	-7.858204088402151	30.85804756486643	0.5385745307439377	0	0	0	26.36016757393456	-8.893608708107607	-7.858204088402151	30.85804756486643	0.5385745307439377	0	0	0	2.516376073072081	3.266446760954259	12.35577350732932	55.55814506748773	12.07766634169542	-3.491841657620165	73.96010556761613	142.0562311789037	0	0	65.11804213924366	-6.894952986580863	14.84460046381465	80.56238843420758	19.68247595917312	0	0
11.71999999999984	1.797240340436217	2.423184767932041	17.66777311448931	0	0.9399999999999999	0	26.36882439917592	-8.895290419336877	-7.860296852115325	30.86622815927944	0.538717309051215	0	0	0	26.36882439917592	-8.895290419336877	-7.860296852115325	30.86622815927944	0.538717309051215	0	0	0	2.513394223599879	3.229328264837782	12.41627810036408	56.06721393986899	12.11850471649048	-4.225889495399864	74.35706922602402	142.6786393179137	0	0	65.01999177284468	-7.229148755253854	15.12343785998936	81.4696139586713	20.72377693153808	0	0
11.73999999999984	1.81448647752742	2.399784489531038	17.57534940931912	0	0.9399999999999999	0	26.38230486487968	-8.897911624576249	-7.863558268528173	30.87894394557879	0.5389392413891186	0	0	0	26.38230486487968	-8.897911624576249	-7.863558268528173	30.87894394557879	0.5389392413891186	0	0	0	2.525593050557658	3.198821350378321	12.3800878358266	56.62322855867834	12.37822203176198	-4.638252594797568	74.07857335836104	143.1832722938908	0	0	64.79106921070847	-7.637203775278143	15.59527995695255	82.07479093146827	22.48738784761957	0	0
11.75999999999984	1.835062119420935	2.365720885198969	17.59959134797906	0	0.9399999999999999	0	26.39552279240207	-8.900478024483993	-7.866754011484031	30.89141390533213	0.5391568832444055	0	0	0	26.39552279240207	-8.900478024483993	-7.866754011484031	30.89141390533213	0.5391568832444055	0	0	0	2.540407094590328	3.151480194574923	12.23835597644345	57.23157919335718	12.60357158378051	-4.687547501059983	74.25178534108323	143.3270103476094	0	0	64.55247097689201	-8.177868587183015	16.216958616499	82.13582342570879	24.80350133568328	0	0
11.77999999999984	1.861321233617205	2.311042801829441	17.63092387383421	0	0.9399999999999999	0	26.40639009222485	-8.902581069536698	-7.869376586479361	30.90168579020225	0.539336161455775	0	0	0	26.40639009222485	-8.902581069536698	-7.869376586479361	30.90168579020225	0.539336161455775	0	0	0	2.552587126585012	3.085070822130366	12.13591928834954	57.78927242179331	12.59309976242805	-4.87924646072126	73.78548122127948	143.1175450116918	0	0	64.37573680539266	-8.808056450831071	16.82483136480877	82.01036606487189	26.17388909395053	0	0
